<svg width="20" height="18" viewBox="0 0 20 18" fill="none" xmlns="http://www.w3.org/2000/svg">
<path fill-rule="evenodd" clip-rule="evenodd" d="M7 3C7 2.44772 7.44772 2 8 2H12C12.5523 2 13 2.44772 13 3H7ZM5 3C5 1.34315 6.34315 0 8 0H12C13.6569 0 15 1.34315 15 3H17C18.6569 3 20 4.34315 20 6V8V15C20 16.6569 18.6569 18 17 18H3C1.34315 18 0 16.6569 0 15V8V6C0 4.34315 1.34315 3 3 3H5ZM14 5H17C17.5523 5 18 5.44772 18 6V7H2V6C2 5.44772 2.44772 5 3 5H6H14ZM18 15V9H2V15C2 15.5523 2.44772 16 3 16H17C17.5523 16 18 15.5523 18 15Z" fill="white"/>
</svg>
